<svg xmlns="http://www.w3.org/2000/svg" viewBox="0 0 390 844" width="390" height="844" preserveAspectRatio="xMidYMid slice"><rect width="390" height="252" fill="#d7e1e5"/><rect width="390" height="96" fill="#e9eff1"/><rect y="252" width="390" height="592" fill="#e4ecef"/><rect x="58" y="30" width="100" height="11" rx="5" fill="#fbfdfd" stroke="#4a3a2e" stroke-width="2"/><ellipse cx="108" cy="46" rx="58" ry="9" fill="#ffffff" opacity=".35"/><rect x="232" y="30" width="100" height="11" rx="5" fill="#fbfdfd" stroke="#4a3a2e" stroke-width="2"/><ellipse cx="282" cy="46" rx="58" ry="9" fill="#ffffff" opacity=".35"/><path d="M0 96 L390 96" stroke="#4a3a2e" stroke-width="2" opacity=".5"/><circle cx="195" cy="76" r="13" fill="#fbfdfd" stroke="#4a3a2e" stroke-width="2.2"/><path d="M195 76 L195 67 M195 76 L202 78" stroke="#4a3a2e" stroke-width="2" stroke-linecap="round"/><rect x="163" y="100" width="64" height="18" rx="4" fill="#4a8a96" stroke="#4a3a2e" stroke-width="2"/><text x="195" y="113.5" text-anchor="middle" font-family="Arial,sans-serif" font-size="11" font-weight="bold" fill="#f2f7f8" letter-spacing="3">UCI</text><rect x="16" y="122" width="106" height="130" rx="5" fill="#ecf4f5" stroke="#4a8a96" stroke-width="3"/><path d="M69 122 L69 252" stroke="#4a8a96" stroke-width="1.6" opacity=".7"/><rect x="28" y="138" width="26" height="17" rx="2.5" fill="#37464e" stroke="#4a3a2e" stroke-width="1.6"/><rect x="32" y="214" width="74" height="10" rx="3" fill="#b9c7cc" stroke="#4a3a2e" stroke-width="1.6"/><rect x="29" y="196" width="80" height="20" rx="6" fill="#fbfdfd" stroke="#4a3a2e" stroke-width="1.8"/><rect x="32" y="192" width="20" height="12" rx="5" fill="#fefefe" stroke="#4a3a2e" stroke-width="1.6"/><path d="M58 196 L58 216 M58 202 L109 202" stroke="#a7c8ce" stroke-width="3.4" opacity=".9"/><circle cx="38" cy="228" r="3.4" fill="#8fa2ab" stroke="#4a3a2e" stroke-width="1.4"/><circle cx="100" cy="228" r="3.4" fill="#8fa2ab" stroke="#4a3a2e" stroke-width="1.4"/><path d="M112 156 L112 224" stroke="#4a3a2e" stroke-width="1.8"/><path d="M106 158 L118 158" stroke="#4a3a2e" stroke-width="1.8"/><path d="M30 240 L68 128 M46 246 L84 134" stroke="#ffffff" stroke-width="7" opacity=".28" stroke-linecap="round"/><rect x="142" y="122" width="106" height="130" rx="5" fill="#ecf4f5" stroke="#4a8a96" stroke-width="3"/><path d="M195 122 L195 252" stroke="#4a8a96" stroke-width="1.6" opacity=".7"/><rect x="154" y="138" width="26" height="17" rx="2.5" fill="#37464e" stroke="#4a3a2e" stroke-width="1.6"/><rect x="158" y="214" width="74" height="10" rx="3" fill="#b9c7cc" stroke="#4a3a2e" stroke-width="1.6"/><rect x="155" y="196" width="80" height="20" rx="6" fill="#fbfdfd" stroke="#4a3a2e" stroke-width="1.8"/><rect x="158" y="192" width="20" height="12" rx="5" fill="#fefefe" stroke="#4a3a2e" stroke-width="1.6"/><path d="M184 196 L184 216 M184 202 L235 202" stroke="#a7c8ce" stroke-width="3.4" opacity=".9"/><circle cx="164" cy="228" r="3.4" fill="#8fa2ab" stroke="#4a3a2e" stroke-width="1.4"/><circle cx="226" cy="228" r="3.4" fill="#8fa2ab" stroke="#4a3a2e" stroke-width="1.4"/><path d="M238 156 L238 224" stroke="#4a3a2e" stroke-width="1.8"/><path d="M232 158 L244 158" stroke="#4a3a2e" stroke-width="1.8"/><path d="M156 240 L194 128 M172 246 L210 134" stroke="#ffffff" stroke-width="7" opacity=".28" stroke-linecap="round"/><rect x="268" y="122" width="106" height="130" rx="5" fill="#ecf4f5" stroke="#4a8a96" stroke-width="3"/><path d="M321 122 L321 252" stroke="#4a8a96" stroke-width="1.6" opacity=".7"/><rect x="280" y="138" width="26" height="17" rx="2.5" fill="#37464e" stroke="#4a3a2e" stroke-width="1.6"/><rect x="284" y="214" width="74" height="10" rx="3" fill="#b9c7cc" stroke="#4a3a2e" stroke-width="1.6"/><rect x="281" y="196" width="80" height="20" rx="6" fill="#fbfdfd" stroke="#4a3a2e" stroke-width="1.8"/><rect x="284" y="192" width="20" height="12" rx="5" fill="#fefefe" stroke="#4a3a2e" stroke-width="1.6"/><path d="M310 196 L310 216 M310 202 L361 202" stroke="#a7c8ce" stroke-width="3.4" opacity=".9"/><circle cx="290" cy="228" r="3.4" fill="#8fa2ab" stroke="#4a3a2e" stroke-width="1.4"/><circle cx="352" cy="228" r="3.4" fill="#8fa2ab" stroke="#4a3a2e" stroke-width="1.4"/><path d="M364 156 L364 224" stroke="#4a3a2e" stroke-width="1.8"/><path d="M358 158 L370 158" stroke="#4a3a2e" stroke-width="1.8"/><path d="M282 240 L320 128 M298 246 L336 134" stroke="#ffffff" stroke-width="7" opacity=".28" stroke-linecap="round"/><path d="M0 252 L390 252" stroke="#4a3a2e" stroke-width="2.4" opacity=".6"/><path d="M27 252 L-221 844" stroke="#8fb0b8" stroke-width="1.1" opacity=".16"/><path d="M69 252 L-117 844" stroke="#8fb0b8" stroke-width="1.1" opacity=".16"/><path d="M111 252 L-13 844" stroke="#8fb0b8" stroke-width="1.1" opacity=".16"/><path d="M279 252 L403 844" stroke="#8fb0b8" stroke-width="1.1" opacity=".16"/><path d="M321 252 L507 844" stroke="#8fb0b8" stroke-width="1.1" opacity=".16"/><path d="M363 252 L611 844" stroke="#8fb0b8" stroke-width="1.1" opacity=".16"/><path d="M0 300 L390 300" stroke="#8fb0b8" stroke-width="1.1" opacity="0.16"/><path d="M0 368 L390 368" stroke="#8fb0b8" stroke-width="1.1" opacity="0.15"/><path d="M0 452 L390 452" stroke="#8fb0b8" stroke-width="1.1" opacity="0.13"/><path d="M0 566 L390 566" stroke="#8fb0b8" stroke-width="1.1" opacity="0.11"/><path d="M0 708 L390 708" stroke="#8fb0b8" stroke-width="1.1" opacity="0.09"/><ellipse cx="108" cy="560" rx="26" ry="130" fill="#ffffff" opacity=".14"/><ellipse cx="282" cy="560" rx="26" ry="130" fill="#ffffff" opacity=".14"/><ellipse cx="224" cy="456" rx="92" ry="27" fill="#ffffff" opacity=".4"/><path d="M150 478 Q240 502 292 458" stroke="#ffffff" stroke-width="7" opacity=".5" fill="none" stroke-linecap="round"/><path d="M140 502 Q232 530 306 472" stroke="#cfe4e8" stroke-width="5" opacity=".55" fill="none" stroke-linecap="round"/><ellipse cx="76" cy="466" rx="26" ry="7" fill="#c7d4d9" opacity=".7"/><path d="M76 398 L98 462 L54 462 Z" fill="#f0b429" stroke="#4a3a2e" stroke-width="2.4" stroke-linejoin="round"/><path d="M64 434 L88 434 L84 420 L68 420 Z" fill="#fbfdfd" stroke="#4a3a2e" stroke-width="1.6"/><rect x="48" y="458" width="56" height="8" rx="3" fill="#f0b429" stroke="#4a3a2e" stroke-width="2"/><ellipse cx="322" cy="474" rx="46" ry="8" fill="#c7d4d9" opacity=".7"/><rect x="282" y="392" width="82" height="72" rx="8" fill="#e8b73c" stroke="#4a3a2e" stroke-width="2.6"/><path d="M282 420 L364 420" stroke="#4a3a2e" stroke-width="1.6" opacity=".55"/><ellipse cx="305" cy="392" rx="17" ry="7" fill="#4a8a96" stroke="#4a3a2e" stroke-width="2.2"/><ellipse cx="305" cy="390" rx="12" ry="4.4" fill="#71a7b1"/><ellipse cx="341" cy="392" rx="14" ry="6" fill="#9fb0b8" stroke="#4a3a2e" stroke-width="2.2"/><path d="M366 392 Q378 392 378 404 L378 448" stroke="#4a3a2e" stroke-width="3" fill="none"/><rect x="270" y="404" width="11" height="17" rx="3" fill="#4a8a96" stroke="#4a3a2e" stroke-width="1.8"/><path d="M273 404 L272 398 L279 398" stroke="#4a3a2e" stroke-width="1.6" fill="none"/><circle cx="296" cy="468" r="7" fill="#37464e" stroke="#4a3a2e" stroke-width="1.8"/><circle cx="350" cy="468" r="7" fill="#37464e" stroke="#4a3a2e" stroke-width="1.8"/><rect x="316" y="374" width="26" height="16" rx="3" fill="#37464e" stroke="#4a3a2e" stroke-width="2"/><circle cx="323" cy="382" r="3.4" fill="#9fb0b8"/><path d="M338 374 L346 360" stroke="#4a3a2e" stroke-width="1.8"/><text x="352" y="360" font-family="Arial,sans-serif" font-size="15" fill="#4a8a96">♪</text><text x="362" y="344" font-family="Arial,sans-serif" font-size="12" fill="#4a8a96" opacity=".8">♪</text><g transform="translate(0,-24)"><ellipse cx="152" cy="472" rx="42" ry="9" fill="#b9c9cf" opacity=".8"/><path d="M138 400 L132 452 Q131 460 138 460 L148 460 L150 402 Z" fill="#6f8a3f" stroke="#4a3a2e" stroke-width="2.4" stroke-linejoin="round"/><path d="M158 400 L164 450 Q165 458 172 458 L182 458 L176 398 Z" fill="#7d9648" stroke="#4a3a2e" stroke-width="2.4" stroke-linejoin="round"/><path d="M130 460 Q128 470 137 470 L152 470 Q157 470 155 461 Z" fill="#e8edf0" stroke="#4a3a2e" stroke-width="2.2"/><path d="M164 458 Q162 468 171 468 L186 468 Q191 468 188 459 Z" fill="#e8edf0" stroke="#4a3a2e" stroke-width="2.2"/><path d="M126 322 Q124 300 140 292 L172 290 Q190 296 190 318 L184 404 Q158 412 132 404 Z" fill="#a9c25d" stroke="#4a3a2e" stroke-width="2.6" stroke-linejoin="round"/><path d="M168 294 Q186 300 186 320 L182 402 Q172 406 162 406 Z" fill="#93ad4c" opacity=".8"/><path d="M128 356 Q158 364 186 356" stroke="#4a3a2e" stroke-width="1.4" opacity=".4" fill="none"/><path d="M128 316 Q116 344 138 366 Q146 372 152 366 L160 356 Q150 344 146 326 Z" fill="#a9c25d" stroke="#4a3a2e" stroke-width="2.4" stroke-linejoin="round"/><path d="M184 312 Q200 322 202 340 L196 352 Q184 348 176 338 Z" fill="#93ad4c" stroke="#4a3a2e" stroke-width="2.4" stroke-linejoin="round"/><circle cx="157" cy="362" r="7.5" fill="#e8b48c" stroke="#4a3a2e" stroke-width="2.2"/><circle cx="200" cy="348" r="7.5" fill="#e8b48c" stroke="#4a3a2e" stroke-width="2.2"/><path d="M138 268 Q138 246 158 246 Q178 246 178 268 Q178 288 158 290 Q138 288 138 268 Z" fill="#4c3b2a" stroke="#4a3a2e" stroke-width="2.6"/><circle cx="162" cy="244" r="10" fill="#4c3b2a" stroke="#4a3a2e" stroke-width="2.4"/><path d="M176 272 Q180 276 178 282 Q172 284 170 278 Z" fill="#e8b48c" stroke="#4a3a2e" stroke-width="1.8"/><path d="M134 272 Q136 236 158 234 Q180 236 182 272" fill="none" stroke="#37464e" stroke-width="6" stroke-linecap="round"/><path d="M134 272 Q136 236 158 234 Q180 236 182 272" fill="none" stroke="#4a3a2e" stroke-width="8.4" stroke-linecap="round" opacity=".3"/><path d="M137 240 Q158 232 179 240" stroke="#5c6f78" stroke-width="3" fill="none" stroke-linecap="round"/><rect x="124" y="262" width="18" height="24" rx="8" fill="#4a5b64" stroke="#4a3a2e" stroke-width="2.4"/><rect x="128" y="267" width="10" height="14" rx="5" fill="#6f838d"/><rect x="174" y="262" width="18" height="24" rx="8" fill="#4a5b64" stroke="#4a3a2e" stroke-width="2.4"/><rect x="178" y="267" width="10" height="14" rx="5" fill="#6f838d"/><path d="M133 286 Q128 306 136 322" stroke="#37464e" stroke-width="2.2" fill="none"/><path d="M144 292 Q158 298 172 291" stroke="#4a3a2e" stroke-width="1.8" fill="none" opacity=".6"/><path d="M150 340 L232 458" stroke="#b58a4e" stroke-width="6" stroke-linecap="round"/><path d="M150 340 L232 458" stroke="#4a3a2e" stroke-width="8.5" stroke-linecap="round" opacity=".28"/><path d="M212 454 Q232 442 252 454 Q262 462 254 470 Q232 482 210 470 Q202 462 212 454 Z" fill="#f2f5f6" stroke="#4a3a2e" stroke-width="2.4"/><path d="M220 468 Q221 476 218 480" stroke="#d5dee2" stroke-width="3" fill="none" stroke-linecap="round"/><path d="M228 468 Q229 476 226 480" stroke="#d5dee2" stroke-width="3" fill="none" stroke-linecap="round"/><path d="M236 468 Q237 476 234 480" stroke="#d5dee2" stroke-width="3" fill="none" stroke-linecap="round"/><path d="M244 468 Q245 476 242 480" stroke="#d5dee2" stroke-width="3" fill="none" stroke-linecap="round"/></g></svg>